<svg width="21" height="20" viewBox="0 0 21 20" fill="none" xmlns="http://www.w3.org/2000/svg">
<path d="M11.6999 -0.00366211C12.8253 -0.00180211 13.3955 0.00415791 13.8883 0.0188279L14.0824 0.0251679C14.3066 0.0331379 14.5278 0.0431378 14.7945 0.0556378C15.8586 0.104808 16.5845 0.273138 17.222 0.520638C17.8811 0.774808 18.4378 1.11814 18.9936 1.67398C19.5486 2.22981 19.892 2.78814 20.147 3.44564C20.3936 4.08231 20.562 4.80898 20.612 5.87314C20.6239 6.13981 20.6335 6.36101 20.6414 6.58525L20.6477 6.77934C20.6623 7.27208 20.669 7.84247 20.6711 8.96791L20.6719 9.71351C20.672 9.80461 20.672 9.89861 20.672 9.99561L20.6719 10.2777L20.6713 11.0234C20.6694 12.1488 20.6635 12.7192 20.6488 13.2119L20.6424 13.406C20.6345 13.6303 20.6245 13.8515 20.612 14.1181C20.5628 15.1823 20.3936 15.9081 20.147 16.5456C19.8928 17.2048 19.5486 17.7615 18.9936 18.3173C18.4378 18.8723 17.8786 19.2156 17.222 19.4706C16.5845 19.7173 15.8586 19.8856 14.7945 19.9356C14.5278 19.9475 14.3066 19.9572 14.0824 19.965L13.8883 19.9713C13.3955 19.986 12.8253 19.9926 11.6999 19.9948L10.9541 19.9956C10.863 19.9956 10.7691 19.9956 10.6721 19.9956H10.3899L9.64425 19.9949C8.51885 19.9931 7.94847 19.9871 7.45572 19.9724L7.26164 19.9661C7.03739 19.9581 6.81619 19.9481 6.54953 19.9356C5.48536 19.8865 4.76036 19.7173 4.12203 19.4706C3.46369 19.2165 2.90619 18.8723 2.35036 18.3173C1.79453 17.7615 1.45203 17.2023 1.19703 16.5456C0.94953 15.9081 0.78203 15.1823 0.73203 14.1181C0.72015 13.8515 0.71046 13.6303 0.70261 13.406L0.69632 13.2119C0.68169 12.7192 0.67502 12.1488 0.67286 11.0234L0.672729 8.96791C0.674589 7.84247 0.68054 7.27208 0.69521 6.77934L0.70156 6.58525C0.70953 6.36101 0.71953 6.13981 0.73203 5.87314C0.78119 4.80814 0.94953 4.08314 1.19703 3.44564C1.45119 2.78731 1.79453 2.22981 2.35036 1.67398C2.90619 1.11814 3.46453 0.775638 4.12203 0.520638C4.75953 0.273138 5.48453 0.105638 6.54953 0.0556378C6.81619 0.0437678 7.03739 0.034078 7.26164 0.026228L7.45572 0.0199378C7.94847 0.00529775 8.51885 -0.00137217 9.64425 -0.00353217L11.6999 -0.00366211ZM10.6721 4.99564C7.90913 4.99564 5.67203 7.23517 5.67203 9.99561C5.67203 12.7585 7.91156 14.9956 10.6721 14.9956C13.435 14.9956 15.672 12.7561 15.672 9.99561C15.672 7.23274 13.4325 4.99564 10.6721 4.99564ZM10.6721 6.99564C12.329 6.99564 13.6721 8.33831 13.6721 9.99561C13.6721 11.6525 12.3294 12.9956 10.6721 12.9956C9.01515 12.9956 7.67203 11.653 7.67203 9.99561C7.67203 8.33871 9.01465 6.99564 10.6721 6.99564ZM15.922 3.49564C15.2327 3.49564 14.672 4.05555 14.672 4.74479C14.672 5.43404 15.2319 5.99481 15.922 5.99481C16.6112 5.99481 17.172 5.43491 17.172 4.74479C17.172 4.05555 16.6103 3.49478 15.922 3.49564Z" fill="white"/>
</svg>
