<svg width="210" height="33" viewBox="0 0 210 33" fill="none" xmlns="http://www.w3.org/2000/svg">
<path fill-rule="evenodd" clip-rule="evenodd" d="M42.6765 19.4497V30.5698H37.7375V19.4497C37.7375 16.433 35.3124 13.9783 32.2957 13.9783C28.8651 13.9783 26.085 16.7584 26.085 20.189V30.5698H21.146V19.7158C21.146 16.5513 18.573 13.9783 15.4085 13.9783C12.4214 13.9783 9.93717 16.1964 9.5527 19.0948C13.3679 19.4792 16.3549 22.7029 16.3549 26.6364C16.3549 29.8896 13.7227 32.5217 10.4695 32.5217C7.21628 32.5217 4.55454 29.8896 4.55454 26.6364V23.9746H0V19.0356H4.5841C5.02773 13.4755 9.70055 9.03931 15.4085 9.03931C18.78 9.03931 21.7671 10.6068 23.7486 13.0615C25.7893 10.6068 28.8651 9.03931 32.2957 9.03931C38.0037 9.03931 42.6765 13.7121 42.6765 19.4497ZM9.49353 24.0633V26.6364C9.49353 27.1687 9.90759 27.6123 10.4695 27.6123C11.0019 27.6123 11.4455 27.1687 11.4455 26.6364C11.4455 25.3942 10.6174 24.3887 9.49353 24.0633Z" fill="#E41F76"/>
<path fill-rule="evenodd" clip-rule="evenodd" d="M66.0998 19.775V30.5698H61.1904V28.8545C59.5046 29.9192 57.4935 30.5698 55.3345 30.5698C49.4196 30.5698 44.5989 25.7491 44.5989 19.8045C44.5989 13.8896 49.4196 9.03931 55.3345 9.03931C61.2791 9.03931 66.0998 13.86 66.0998 19.775ZM61.1904 19.8045C61.1904 16.5809 58.5582 13.9783 55.3345 13.9783C52.1404 13.9783 49.5083 16.5809 49.5083 19.8045C49.5083 23.0282 52.1404 25.6308 55.3345 25.6308C58.5582 25.6308 61.1904 23.0282 61.1904 19.8045Z" fill="#E41F76"/>
<path fill-rule="evenodd" clip-rule="evenodd" d="M91.5046 0.521729H96.4141V30.5698H91.5046V28.8545C89.8189 29.9191 87.8078 30.5698 85.6488 30.5698C79.7338 30.5698 74.9131 25.7491 74.9131 19.8045C74.9131 13.8896 79.7338 9.0393 85.6488 9.0393C87.8078 9.0393 89.8189 9.68993 91.5046 10.7842V0.521729ZM91.5046 19.8045C91.5046 16.5809 88.8725 13.9783 85.6488 13.9783C82.4547 13.9783 79.8226 16.5809 79.8226 19.8045C79.8226 23.0282 82.4547 25.6308 85.6488 25.6308C88.8725 25.6308 91.5046 23.0282 91.5046 19.8045Z" fill="#E41F76"/>
<path d="M68.0518 30.5698H72.9612V9.03931H68.0518V30.5698Z" fill="#E41F76"/>
<path d="M70.5065 0.521729C68.6729 0.521729 67.1941 2.00047 67.1941 3.83411C67.1941 5.63817 68.6729 7.11693 70.5065 7.11693C72.3106 7.11693 73.7893 5.63817 73.7893 3.83411C73.7893 2.00047 72.3106 0.521729 70.5065 0.521729Z" fill="#E41F76"/>
<path fill-rule="evenodd" clip-rule="evenodd" d="M125.664 19.775V30.5698H120.754V28.8545C119.068 29.9192 117.057 30.5698 114.928 30.5698C108.983 30.5698 104.163 25.7491 104.163 19.8045C104.163 13.8896 108.983 9.03931 114.928 9.03931C120.843 9.03931 125.664 13.86 125.664 19.775ZM120.754 19.8045C120.754 16.5809 118.122 13.9783 114.928 13.9783C111.704 13.9783 109.102 16.5809 109.102 19.8045C109.102 23.0282 111.704 25.6308 114.928 25.6308C118.122 25.6308 120.754 23.0282 120.754 19.8045Z" fill="#E41F76"/>
<path fill-rule="evenodd" clip-rule="evenodd" d="M151.068 0.521729H156.007V30.5698H151.068V28.8545C149.383 29.9191 147.372 30.5698 145.242 30.5698C139.298 30.5698 134.477 25.7491 134.477 19.8045C134.477 13.8896 139.298 9.0393 145.242 9.0393C147.372 9.0393 149.383 9.68993 151.068 10.7842V0.521729ZM151.068 19.8045C151.068 16.5809 148.436 13.9783 145.242 13.9783C142.018 13.9783 139.416 16.5809 139.416 19.8045C139.416 23.0282 142.018 25.6308 145.242 25.6308C148.436 25.6308 151.068 23.0282 151.068 19.8045Z" fill="#E41F76"/>
<path d="M127.616 30.5698H132.555V9.03931H127.616V30.5698Z" fill="#E41F76"/>
<path d="M130.07 0.521729C128.266 0.521729 126.787 2.00047 126.787 3.83411C126.787 5.63817 128.266 7.11693 130.07 7.11693C131.904 7.11693 133.383 5.63817 133.383 3.83411C133.383 2.00047 131.904 0.521729 130.07 0.521729Z" fill="#E41F76"/>
<path fill-rule="evenodd" clip-rule="evenodd" d="M172.333 9.51249H175.586V11.8785H172.333V15.6345H169.967V11.8785H163.786C163.135 11.8785 162.543 11.494 162.277 10.9025C162.011 10.311 162.1 9.60121 162.543 9.12802L170.292 0.521729H172.333V9.51249ZM169.967 4.36647L165.353 9.51249H169.967V4.36647Z" fill="#E41F76"/>
<path d="M187.505 1.64558V4.83966V5.69734C187.505 7.20566 186.292 8.38864 184.813 8.38864C183.512 8.38864 182.447 7.35352 182.447 6.02266V0.521729H180.318V6.02266C180.318 8.50694 182.329 10.5476 184.813 10.5476C185.819 10.5476 186.736 10.2223 187.505 9.71951V10.7842C187.505 12.2629 186.292 13.4755 184.813 13.4755C183.512 13.4755 182.447 12.4108 182.447 11.1095H180.318C180.318 13.5938 182.329 15.6049 184.813 15.6049C186.292 15.6049 187.623 14.9247 188.51 13.86C189.22 13.0319 189.634 11.9672 189.634 10.7842V6.64372V6.2001V5.69734V4.83966V1.64558V0.521729H187.505V1.64558Z" fill="#E41F76"/>
<path d="M207.852 0.521729V0.965351V5.0171C207.852 6.49585 206.64 7.70843 205.161 7.70843C203.86 7.70843 202.795 6.64373 202.795 5.34244V0.521729H200.665V5.34244C200.665 7.82673 202.677 9.83782 205.161 9.83782C206.64 9.83782 207.97 9.15759 208.858 8.0929C209.567 7.2648 209.982 6.17052 209.982 5.0171V0.965351V0.521729H207.852Z" fill="#E41F76"/>
<path fill-rule="evenodd" clip-rule="evenodd" d="M199.867 5.19456C199.867 6.85076 199.039 8.29992 197.738 9.12802C196.998 9.60121 196.141 9.86739 195.194 9.86739C192.621 9.86739 190.521 7.76758 190.521 5.19456C190.521 2.62155 192.621 0.521729 195.194 0.521729C196.141 0.521729 196.998 0.787902 197.738 1.2611C199.039 2.0892 199.867 3.53837 199.867 5.19456ZM197.738 5.19456C197.738 3.80454 196.584 2.65111 195.194 2.65111C193.804 2.65111 192.651 3.80454 192.651 5.19456C192.651 6.58458 193.804 7.73799 195.194 7.73799C196.584 7.73799 197.738 6.58458 197.738 5.19456Z" fill="#E41F76"/>
</svg>
