<svg width="148" height="33" viewBox="0 0 148 33" fill="none" xmlns="http://www.w3.org/2000/svg">
<path fillRule="evenodd" clipRule="evenodd" d="M53.9459 13.9578C53.9463 29.2237 53.9661 29.3574 56.4764 31.0366C57.6613 31.8292 58.0631 31.8707 64.5492 31.87C72.5695 31.8696 73.412 31.6275 74.7866 28.9312C75.5976 27.3401 75.6254 26.9914 75.5205 19.6793C75.4192 12.6218 75.3565 12.0067 74.6391 11.0443C72.986 8.82535 71.9839 8.5505 65.0453 8.40977L58.7155 8.28153V4.27602V0.270508H56.3303H53.9452L53.9459 13.9578ZM80.3653 3.02634V5.41473H83.1174H85.8695V3.02634V0.637952H83.1174H80.3653V3.02634ZM90.3022 13.9578C90.3356 28.5847 90.4768 29.7146 92.4371 31.0326C93.5863 31.805 94.0832 31.8707 98.7845 31.8707H103.885L103.776 29.5742L103.666 27.2777L99.5382 27.1737L95.4101 27.0697V20.1004V13.1311H99.2806H103.151L103.042 10.8345L102.932 8.53801L99.1713 8.43328L95.4101 8.32856V4.66698V1.0054H92.8414H90.2728L90.3022 13.9578ZM0.371094 15.152C0.371094 18.8908 0.484482 21.9497 0.62282 21.9497C0.761159 21.9497 1.91704 20.8742 3.19144 19.5602L5.50834 17.1704V12.7625V8.35429H2.93971H0.371094V15.152ZM17.9845 15.7708V23.2196L14.9495 20.1963L11.9145 17.173H8.89488C7.23408 17.173 5.87528 17.2527 5.87528 17.3504C5.87528 17.4482 7.23775 18.8514 8.90258 20.4689L11.9299 23.4096L14.9572 23.4147L17.9845 23.4195V27.6451V31.8707H20.7417H23.499L23.4021 20.2044L23.3052 8.53801L20.6449 8.42998L17.9845 8.32195V15.7708ZM31.4903 8.8496C28.6017 9.65982 27.666 10.9371 27.2847 14.5917L27.0536 16.8055H29.6545H32.255L32.3669 15.0601L32.4789 13.3148H38.1665H43.8542L43.9654 15.0407C44.0931 17.03 45.111 16.5435 36.0951 18.8022C33.2403 19.5172 30.3891 20.3943 29.7591 20.7504C28.0212 21.7337 27.0198 24.0901 27.3192 26.491C27.6249 28.9407 28.5514 30.4748 30.1975 31.2571C31.258 31.7612 32.6931 31.8707 38.2278 31.8707C45.8159 31.8707 46.8796 31.5937 48.2575 29.2571C48.9287 28.1191 48.9914 27.3526 48.9914 20.2962C48.9914 13.2123 48.9305 12.4744 48.2472 11.2938C46.9361 9.02744 45.4034 8.56262 38.9004 8.4579C35.0574 8.39581 32.6539 8.52294 31.4903 8.8496ZM80.3653 20.3124V32.2705L83.0256 32.1625L85.686 32.0545L85.7829 20.2044L85.8798 8.35429H83.1225H80.3653V20.3124ZM111.656 8.76288C108.913 9.41069 107.152 12.1154 107.152 15.6822V16.8055H109.701H112.249L112.361 15.0601L112.473 13.3148L118.252 13.2137L124.032 13.1123V14.9448C124.032 16.7537 124.014 16.7816 122.656 17.134C121.899 17.3306 118.988 18.0783 116.186 18.796C108.693 20.7159 107.32 21.7686 107.372 25.5569C107.41 28.3532 108.339 30.2422 110.124 31.1542C111.363 31.7873 112.307 31.8707 118.238 31.87C126.128 31.8696 126.997 31.6176 128.343 28.9451C129.114 27.4158 129.169 26.8345 129.169 20.2962C129.169 13.7554 129.114 13.1777 128.343 11.6558C126.948 8.89847 125.935 8.54977 119.078 8.46709C115.849 8.42814 112.509 8.56116 111.656 8.76288ZM138.388 8.72246C136.706 9.12004 135.352 10.175 134.582 11.6874C134.02 12.7901 133.94 14.1272 133.94 22.409L133.939 31.8707H136.508H139.077V22.5009V13.1311H143.113H147.149V10.7427V8.35429L143.388 8.39177C141.319 8.41271 139.069 8.56152 138.388 8.72246ZM70.4577 20.1217V27.1127L64.6784 27.0113L58.899 26.9102L58.798 20.4928C58.7426 16.9631 58.779 13.863 58.8784 13.6032C59.0149 13.2468 60.4548 13.1311 64.7587 13.1311H70.4577V20.1217ZM44.0376 23.9707V27.094H38.1665H32.2954V25.4548C32.2954 23.8377 32.3167 23.8094 33.8549 23.3897C36.8154 22.5817 43.488 20.8808 43.7624 20.8639C43.914 20.8547 44.0376 22.2529 44.0376 23.9707ZM124.032 23.9707V27.094H118.161H112.29V25.4548C112.29 23.8704 112.336 23.8031 113.666 23.4489C117.716 22.3705 123.517 20.8871 123.757 20.8687C123.908 20.8569 124.032 22.2529 124.032 23.9707ZM0.371094 27.6451V31.8707H3.12319H5.87528V27.6451V23.4195H3.12319H0.371094V27.6451Z" fill="white"/>
</svg>
