<svg width="140" height="32" viewBox="0 0 140 32" fill="none" xmlns="http://www.w3.org/2000/svg">
<path d="M22.9899 12.6696C20.8049 12.6696 18.8484 13.6645 17.5469 15.2252C16.3012 13.6701 14.3865 12.6696 12.2433 12.6696C8.62026 12.6696 5.64099 15.4761 5.36508 19.0322H2.44434V22.1648H5.34557V23.8537C5.34557 25.9244 7.0289 27.6077 9.09962 27.6077C11.1703 27.6077 12.8537 25.9244 12.8537 23.8537C12.8537 21.3566 10.9474 19.297 8.51157 19.0545C8.7624 17.2207 10.3398 15.8021 12.2405 15.8021C14.2583 15.8021 15.8998 17.4437 15.8998 19.4614V26.3536H19.0324V19.7513C19.0324 17.5719 20.8049 15.7993 22.9843 15.7993C24.899 15.7993 26.4569 17.3573 26.4569 19.2719V26.3508H29.5894V19.2719C29.5894 15.6293 26.6241 12.664 22.9815 12.664L22.9899 12.6696ZM9.7239 23.8537C9.7239 24.1965 9.44521 24.4752 9.10241 24.4752C8.75961 24.4752 8.48092 24.1965 8.48092 23.8537V22.2261C9.19717 22.4212 9.7239 23.0789 9.7239 23.8537Z" fill="#E41F76"/>
<path d="M37.6602 12.6696C33.8867 12.6696 30.8154 15.7408 30.8154 19.5144C30.8154 23.2879 33.8867 26.3592 37.6602 26.3592C39.0286 26.3592 40.3023 25.955 41.3725 25.2611V26.3592H44.505V19.4948C44.4939 15.7296 41.4282 12.6696 37.6602 12.6696ZM37.6602 23.2266C35.6146 23.2266 33.948 21.5628 33.948 19.5144C33.948 17.4659 35.6118 15.8021 37.6602 15.8021C39.7087 15.8021 41.3725 17.4659 41.3725 19.5144C41.3725 21.5628 39.7087 23.2266 37.6602 23.2266Z" fill="#E41F76"/>
<path d="M60.6586 13.7676C59.5884 13.0737 58.3148 12.6696 56.9464 12.6696C53.1728 12.6696 50.1016 15.7408 50.1016 19.5144C50.1016 23.2879 53.1728 26.3592 56.9464 26.3592C58.3148 26.3592 59.5884 25.9551 60.6586 25.2611V26.3564H63.7912V7.23776H60.6586V13.7676ZM56.9464 23.2266C54.9007 23.2266 53.2341 21.5628 53.2341 19.5144C53.2341 17.4659 54.8979 15.8021 56.9464 15.8021C58.9948 15.8021 60.6586 17.4659 60.6586 19.5144C60.6586 21.5628 58.9948 23.2266 56.9464 23.2266Z" fill="#E41F76"/>
<path d="M48.8694 12.6696H45.7368V26.3564H48.8694V12.6696Z" fill="#E41F76"/>
<path d="M47.3032 11.4461C48.4622 11.4461 49.4018 10.5065 49.4018 9.34749C49.4018 8.18847 48.4622 7.2489 47.3032 7.2489C46.1442 7.2489 45.2046 8.18847 45.2046 9.34749C45.2046 10.5065 46.1442 11.4461 47.3032 11.4461Z" fill="#E41F76"/>
<path d="M75.5631 12.6696C71.7895 12.6696 68.7183 15.7408 68.7183 19.5144C68.7183 23.2879 71.7895 26.3592 75.5631 26.3592C76.9315 26.3592 78.2051 25.955 79.2753 25.2611V26.3592H82.4079V19.4948C82.3967 15.7296 79.331 12.6696 75.5631 12.6696ZM75.5631 23.2266C73.5174 23.2266 71.8508 21.5628 71.8508 19.5144C71.8508 17.4659 73.5146 15.8021 75.5631 15.8021C77.6115 15.8021 79.2753 17.4659 79.2753 19.5144C79.2753 21.5628 77.6115 23.2266 75.5631 23.2266Z" fill="#E41F76"/>
<path d="M98.5614 13.7676C97.4912 13.0737 96.2176 12.6696 94.8492 12.6696C91.0756 12.6696 88.0044 15.7408 88.0044 19.5144C88.0044 23.2879 91.0756 26.3592 94.8492 26.3592C96.2176 26.3592 97.4912 25.9551 98.5614 25.2611V26.3564H101.694V7.23776H98.5614V13.7676ZM94.8492 23.2266C92.8036 23.2266 91.137 21.5628 91.137 19.5144C91.137 17.4659 92.8008 15.8021 94.8492 15.8021C96.8976 15.8021 98.5614 17.4659 98.5614 19.5144C98.5614 21.5628 96.8976 23.2266 94.8492 23.2266Z" fill="#E41F76"/>
<path d="M86.7722 12.6696H83.6396V26.3564H86.7722V12.6696Z" fill="#E41F76"/>
<path d="M87.281 9.68204C87.4667 8.538 86.6898 7.46003 85.5457 7.27432C84.4017 7.08862 83.3237 7.8655 83.138 9.00955C82.9523 10.1536 83.7292 11.2316 84.8732 11.4173C86.0173 11.603 87.0953 10.8261 87.281 9.68204Z" fill="#E41F76"/>
<path d="M112.097 7.74219L110.788 7.24054L105.409 13.2214L105.969 14.4755H110.595V16.8612H112.1V14.4755H114.165V12.9706H112.1V7.73941L112.097 7.74219ZM110.592 12.9706H107.652L110.592 9.70144V12.9706Z" fill="#E41F76"/>
<path d="M121.743 7.96516V10.5459C121.743 11.4907 120.974 12.2571 120.032 12.2571C119.202 12.2571 118.527 11.5827 118.527 10.7521V7.23776H117.17V10.7521C117.17 12.3323 118.455 13.6144 120.032 13.6144C120.665 13.6144 121.256 13.4193 121.743 13.0904V13.776C121.743 14.7208 120.974 15.4872 120.032 15.4872C119.202 15.4872 118.527 14.8127 118.527 13.9822H117.17C117.17 15.5624 118.455 16.8445 120.032 16.8445C120.98 16.8445 121.827 16.4125 122.39 15.738C122.833 15.2057 123.101 14.5201 123.101 13.776V7.23776H121.743V7.96516Z" fill="#E41F76"/>
<path d="M134.686 7.23777V10.0972C134.686 11.042 133.917 11.8084 132.975 11.8084C132.144 11.8084 131.47 11.134 131.47 10.3034V7.23499H130.112V10.3034C130.112 11.8837 131.397 13.1657 132.975 13.1657C133.922 13.1657 134.769 12.7337 135.332 12.0592C135.775 11.5269 136.043 10.8413 136.043 10.0972V7.23777H134.686Z" fill="#E41F76"/>
<path d="M128.251 7.71712C127.786 7.41613 127.231 7.23776 126.635 7.23776C124.99 7.23776 123.655 8.57551 123.655 10.217C123.655 11.8586 124.993 13.1963 126.635 13.1963C127.231 13.1963 127.786 13.0207 128.251 12.7197C129.07 12.1874 129.614 11.2649 129.614 10.217C129.614 9.16913 129.07 8.24665 128.251 7.71433V7.71712ZM126.637 11.8335C125.746 11.8335 125.021 11.1089 125.021 10.217C125.021 9.3252 125.746 8.60059 126.637 8.60059C127.529 8.60059 128.254 9.3252 128.254 10.217C128.254 11.1089 127.529 11.8335 126.637 11.8335Z" fill="#E41F76"/>
</svg>
